<svg xmlns="http://www.w3.org/2000/svg" viewBox="0 0 367 538" width="367" height="538">
  <path d="M 180 20 L 178 29 L 176 30 L 176 35 L 174 36 L 172 45 L 170 46 L 170 49 L 166 55 L 166 59 L 164 60 L 164 63 L 162 64 L 162 67 L 160 68 L 160 71 L 158 72 L 158 75 L 156 76 L 156 79 L 154 80 L 154 83 L 152 84 L 142 107 L 136 114 L 132 125 L 126 132 L 124 139 L 118 146 L 116 153 L 112 156 L 112 159 L 106 166 L 106 169 L 102 172 L 102 175 L 88 194 L 88 197 L 80 206 L 78 213 L 74 216 L 74 219 L 64 232 L 64 235 L 60 238 L 58 245 L 52 252 L 52 255 L 50 256 L 50 259 L 44 267 L 38 283 L 34 288 L 32 298 L 28 304 L 28 309 L 26 310 L 26 317 L 24 318 L 22 335 L 20 337 L 20 385 L 22 387 L 22 398 L 24 400 L 28 419 L 30 420 L 40 443 L 48 455 L 54 460 L 56 465 L 78 485 L 96 497 L 107 501 L 108 503 L 117 505 L 118 507 L 122 507 L 124 509 L 129 509 L 130 511 L 135 511 L 137 513 L 159 515 L 161 517 L 202 517 L 204 515 L 214 515 L 216 513 L 233 511 L 234 509 L 245 507 L 250 503 L 255 503 L 256 501 L 267 497 L 279 489 L 282 485 L 285 485 L 290 479 L 295 477 L 309 463 L 309 460 L 317 453 L 325 441 L 325 438 L 329 434 L 331 426 L 333 425 L 337 416 L 339 404 L 341 403 L 341 397 L 343 395 L 343 387 L 345 385 L 346 357 L 343 327 L 341 325 L 341 318 L 339 317 L 339 311 L 337 309 L 337 304 L 335 303 L 335 298 L 331 292 L 331 288 L 329 287 L 329 284 L 327 283 L 327 280 L 325 279 L 315 256 L 309 249 L 307 242 L 303 239 L 303 236 L 297 229 L 297 226 L 289 217 L 287 210 L 283 207 L 283 204 L 279 201 L 279 198 L 275 195 L 275 192 L 267 183 L 267 180 L 259 169 L 260 167 L 257 167 L 257 164 L 241 141 L 241 138 L 239 137 L 240 133 L 238 134 L 235 131 L 235 128 L 231 123 L 232 121 L 229 120 L 223 106 L 219 103 L 219 99 L 213 91 L 213 88 L 207 79 L 203 68 L 201 67 L 202 61 L 199 61 L 197 54 L 193 49 L 191 40 L 189 39 L 189 34 L 185 29 L 185 24 L 183 23 L 183 20 Z M 97 256 L 98 261 L 96 262 L 94 275 L 91 275 L 92 282 L 90 284 L 90 291 L 88 292 L 88 299 L 86 300 L 86 307 L 84 308 L 84 315 L 82 316 L 80 330 L 90 338 L 91 343 L 97 343 L 116 360 L 112 378 L 118 391 L 124 395 L 134 397 L 145 393 L 149 389 L 149 386 L 153 381 L 153 368 L 151 366 L 151 362 L 143 355 L 143 352 L 155 334 L 159 331 L 159 328 L 163 325 L 163 322 L 165 321 L 165 318 L 167 317 L 167 314 L 175 301 L 177 292 L 183 285 L 184 289 L 186 290 L 185 294 L 188 294 L 188 299 L 190 300 L 200 323 L 208 335 L 212 338 L 214 343 L 222 350 L 220 355 L 216 358 L 210 373 L 212 376 L 212 384 L 222 395 L 227 395 L 229 397 L 233 395 L 240 396 L 239 394 L 243 393 L 247 389 L 251 381 L 251 364 L 249 363 L 249 358 L 272 335 L 277 333 L 286 323 L 288 324 L 288 328 L 290 330 L 290 353 L 288 355 L 288 369 L 286 370 L 286 377 L 284 378 L 282 389 L 280 390 L 274 405 L 270 408 L 270 411 L 249 432 L 246 432 L 243 436 L 240 436 L 233 442 L 220 446 L 219 448 L 214 448 L 213 450 L 205 450 L 203 452 L 194 452 L 190 454 L 161 454 L 159 452 L 142 450 L 141 448 L 130 446 L 129 444 L 118 440 L 109 432 L 106 432 L 101 427 L 102 425 L 100 426 L 89 415 L 85 409 L 85 406 L 81 403 L 71 380 L 69 362 L 67 360 L 67 340 L 69 338 L 69 326 L 71 324 L 71 316 L 73 315 L 75 302 L 77 301 L 83 282 L 85 281 L 85 278 L 87 277 L 87 274 Z" fill="#002d64" fill-rule="evenodd"/>
</svg>